<?xml version="1.0" encoding="UTF-8"?>
<svg id="Livello_1" xmlns="http://www.w3.org/2000/svg" version="1.1" viewBox="0 0 141.73 141.73">
  <!-- Generator: Adobe Illustrator 29.6.1, SVG Export Plug-In . SVG Version: 2.1.1 Build 9)  -->
  <defs>
    <style>
      .st0 {
        fill: #f2c433;
      }

      .st1 {
        fill: #ddab1f;
      }
    </style>
  </defs>
  <path class="st1" d="M77.02,58.56c2.22-3.68,4.27-7.01,6.15-10,1.88-2.99,3.93-6.27,6.15-9.83,2.22-3.56,4.46-7.17,6.73-10.81,2.26-3.64,4.35-6.97,6.27-10,1.92-3.03,3.47-5.52,4.66-7.47,1.19-1.95,1.86-3.01,2.01-3.16.31-.69.44-1.46.4-2.3-.04-.84-.56-1.26-1.55-1.26-.31,0-1.44.9-3.39,2.7-1.95,1.8-4.45,4.18-7.47,7.13-3.03,2.95-6.32,6.19-9.89,9.72-3.56,3.53-7.09,7.05-10.58,10.58-3.49,3.53-6.69,6.77-9.6,9.72-2.91,2.95-6.13,6.23-9.66,9.83l-34.61,20.47c-1.46,1.23-2.11,2.3-1.95,3.22.23.84.63,1.36,1.21,1.55.57.19,1.05.29,1.44.29h2.99c1.84,0,4.22-.02,7.13-.06,2.91-.04,6-.06,9.26-.06s6.36-.02,9.31-.06c2.95-.04,5.44-.06,7.47-.06h3.51c.92-.08,1.51.19,1.78.8.27.61.36,1.57.29,2.87l-23.34,36.68c-1.38,1.92-2.57,3.58-3.56,5-1,1.42-2.01,2.85-3.05,4.31-1.03,1.46-1.9,2.72-2.59,3.79-.69,1.07-1.03,1.72-1.03,1.95,0,.69.36,1.17,1.09,1.44.73.27,1.48.17,2.24-.29.15-.08,1.4-1.11,3.74-3.1,2.34-1.99,5.46-4.64,9.37-7.93,3.91-3.3,8.28-7,13.11-11.1s9.83-8.35,15.01-12.76c5.17-4.41,10.21-8.74,15.12-12.99,4.9-4.25,9.37-8.14,13.4-11.67,4.02-3.53,7.32-6.46,9.89-8.8,2.57-2.34,4.08-3.77,4.54-4.31.31-.46.52-1.05.63-1.78.11-.73-.04-1.38-.46-1.95-.42-.57-1.28-.86-2.59-.86-.69,0-2.01.21-3.97.63-1.95.42-4.25.98-6.9,1.67-2.64.69-5.37,1.42-8.16,2.18-2.8.77-5.42,1.49-7.88,2.18-2.45.69-5.21,1.49-8.28,2.41l-4.37-8.51Z"/>
  <path class="st0" d="M70.81,56.84c0,.84.54,1.3,1.61,1.38h12.25c3.33,0,6.84-.02,10.52-.06,3.68-.04,7.13-.08,10.35-.11,3.22-.04,6.9-.06,11.04-.06-2.99,2.76-5.71,5.25-8.16,7.47-2.45,2.22-5.14,4.68-8.05,7.36-2.91,2.68-5.85,5.39-8.8,8.11-2.95,2.72-5.67,5.21-8.16,7.47-2.49,2.26-4.5,4.08-6.04,5.46-1.53,1.38-3.55,3.18-6.04,5.4-2.49,2.22-5.23,4.68-8.22,7.36-2.99,2.68-6,5.36-9.03,8.05-3.03,2.68-5.85,5.17-8.45,7.47-2.61,2.3-4.75,4.21-6.44,5.75-1.69,1.53-2.72,2.45-3.1,2.76-1,1-1.9,1.84-2.7,2.53-.8.69-1.4.96-1.78.8-.08,0-.02-.31.17-.92.19-.61.98-2.07,2.36-4.37.46-.69,1.44-2.3,2.93-4.83s3.28-5.54,5.35-9.03c2.07-3.49,4.23-7.13,6.5-10.92,2.26-3.79,4.41-7.36,6.44-10.69,2.03-3.33,3.7-6.09,5-8.28,1.3-2.18,2.03-3.43,2.18-3.74.92-1.53,1.69-2.72,2.3-3.56.15-.31.36-.84.63-1.61.27-.77.31-1.49.11-2.18-.19-.69-.82-1.03-1.9-1.03-.61,0-2.01.04-4.2.11-2.18.08-4.83.15-7.93.23-3.1.08-6.32.15-9.66.23-3.33.08-6.46.15-9.37.23-2.91.08-6.21.15-9.89.23,3.6-3.07,6.82-5.79,9.66-8.16,2.84-2.38,5.81-4.87,8.91-7.47,3.1-2.61,6.02-5.02,8.74-7.24,2.72-2.22,4.81-3.95,6.27-5.17,1.07-.84,2.78-2.22,5.12-4.14,2.34-1.92,5.06-4.18,8.16-6.78,3.1-2.61,6.36-5.33,9.77-8.16,3.41-2.84,6.76-5.61,10.06-8.34,3.3-2.72,6.3-5.19,9.03-7.42,2.72-2.22,4.92-3.99,6.61-5.29,1.69-1.3,2.64-1.95,2.87-1.95s-.25.9-1.44,2.7c-1.19,1.8-2.84,4.18-4.94,7.13-2.11,2.95-4.45,6.21-7.01,9.77-2.57,3.56-5.16,7.13-7.76,10.69-2.61,3.56-5.04,6.86-7.3,9.89-2.26,3.03-4.1,5.52-5.52,7.47-1.42,1.95-2.2,3.01-2.36,3.16-.46.69-.69,1.46-.69,2.3Z"/>
</svg>